/* XPM */
static char *_3aaf7f062af46c5e90fd50e3795b42c[] = {
/* columns rows colors chars-per-pixel */
"128 128 39 1 ",
"  c #262527",
". c #292727",
"X c #2D2926",
"o c #262529",
"O c #28272B",
"+ c #2C2B2C",
"@ c #302721",
"# c #332B26",
"$ c #392E26",
"% c #312E2D",
"& c #382F29",
"* c #3C3027",
"= c #34302E",
"- c #3D332B",
"; c #2D2C31",
": c #302F33",
"> c #343333",
", c #393635",
"< c #3D3936",
"1 c #363539",
"2 c #3D3B3A",
"3 c #41362D",
"4 c #44382F",
"5 c #413730",
"6 c #433A34",
"7 c #483C34",
"8 c #423E3C",
"9 c #493F38",
"0 c #44403E",
"q c #4B433E",
"w c #444242",
"e c #4A4645",
"r c #4F4843",
"t c #4C4B4B",
"y c #514944",
"u c #514E4E",
"i c #59514B",
"p c #514F50",
"a c #525050",
/* pixels */
"663-%2ewww2OO;;O;;;;O+128222<>%5644-%8wwww2+O+;OO;;;O;2282222>#36633%2wwww2.++;O++::O+222222,>%3653-#8wwww2.++O;O;;; %228222,>+-",
"633$#2ewww, ++OOO;;O .,<2<1,,=%563-*%2wwww2.O+OOO;OOoO>22>2>>==663-$%2wwww,  +OOO+OOoO,,222,,>%5653*X8weww>+O+OO;;;O .,,2,2,,>=5",
"-$$$X22222>.    oooo  %%%%%%%+%--&#%X<222,>     O o  .+;+>%%%+=&*$&#.22282> o oo  ..  +%+>%%%.%--#*#.22222>.    o oo .==%>%%=.=-",
">%.%>>>;.>,>::;+o+>10000%.12,=%=>%.>>,>%+>>>>>++o;128ww2>.>2,>====.=>2>%+>>>>>;+.+,<2ww8%.,,>>>>,=.%>,,+.>>>>>++o;:18000% >2,>%=",
"pe+wauu2=2222882:8iiiiii01ppaauuaw+waua2%2028888=0iiuiii0>aaaaaaue+wata2%2282222%0iiiiii0,aaattapw+wata8%2022882:wiiiiiiw,atatta",
"ww>wwwe2=<,,,>,1>8iqqqqy02wwwweww8>wwww2>2,,2>,,=qqiqqqqw2ewwwwwww>wwww2>2,,1222=0rrqrqr02ewwwewww>wwww2>,,,,2,,>2iqqqqq0,ewweet",
"82%20ww2%>,>>,,2>0qqqqqq8=w88wwww2>2www2+>>>,,,,,8qqqqqq8>w2wwwww2>2www2%>>2>>12>0yrrqee8>08w8www2>2www2+>,,,,,,>8qqqqqq8=2wwww8",
"1112111>++%%+%%>>102,===++:>%>>,,2>2,>>>++%%%+%>><8<,,,<+.>>+>>>>2>22>>>+.%%%++>=<0<=>%>+.>>>>>>12>22>>>++%+%%%>>,022,,=%.>>>>>>",
"auuue++>,->,<=8ettpte++wtttt%waaaapaw++,,,,,,>8tqtape%+wtttt+tttaaaae++,,,,,,=0etttue+.wtttt>wtapptpe++>,,,,,=8ettaae+%8tttt>wta",
"tewww%2000000-ttteeet2,u0ee81tttwtwww><088908>ttteeet2,teeww2tttwewww%<8080q6,ttteeet22twwtw>ttteewww%<008988,tuttwwt22teeww,ttt",
"wwwww><262662=8wwwwww2>wwww22wwwwwwww>,<<6<6<=2wwwwww2,wwww22wwwwwwww>2<<<<<2%8wwww0w2>wwww22wwwwwwww>22<<<8<=28ww8ww2,0www22www",
"28882=>2<6<,>+>122222>%<22,>>2222w222>>2<<<,,+>22222,>%<,21>>22888822>>26<6,,X>222222>>222>>>228w2w82>=26<3,>%>222222>%<,2>>>22w",
";:%%%;++%X>1,,>++%%===-%+>%>+++%+:;>;:++#%=<>>>.++$&=**X+1>%%+%++>+>:+++%%>>,>>.%%=====X+>>>%++++>+>++;+%%>>,>>+.%%====%+>>%+.%;",
"wt1O:>1:+>ppppt%,<00777%2www2>ttwt,.::>>+>uuppt><600000&288w2>tewt1.::1>+>aauut%4747q77=28w22>ttww1+:>::+=ppaat><8q477q#2www2>tt",
"we8;;;;:+2ewwww>44*333-%,,,,>>twtww+:O+:+2ewwww15733333$2>2,>,ttwt2+;+;:.2ewww0>6444333=22>2>2ttwww;;;;>+2ewwww>6733333%,,,,>>te",
"ww2:;;;:%2ewww8,643-*--%>>,>,2twww2;O:>>;2ewwww,6653***#>>>>>2ewwww+;+:>:2weeww,6443**&X>>>>>2wwwe2:+;;>+2eewww>4443--*+>>>,,2ew",
",,,+ +%%+>221>>>===#+.+++%+>>>2,,,,+ O+%%>1,,>>>===+#+%++.%>>>2>>2,+ ++%%>,,>>>>====X%XX+%+%>>11>2,+ ++%>>2>2>>>===&++#+++%%>>2>",
">+><>,>>2>>>>>2200w=:1111> +2,>%>.>,>22<2,>>%>220ww%>>>12>.+22>>>.>,>,2,2>>>>>2280w+>>>21:.>221>>X><>,2,2>>>%>2288w=:1,1>>.+21>>",
"t>qyqt0<228828aaauq>::%%;++wttttt,qiuiq08282,waaaut%::>;;++8tttta>euuiq882822wuuatt>:;>;:++wwtttt>qiyur8228828ptatt>::;>;;+wtttt",
"w>0q0qq,,>>>>1wwww2>++;++ ;822www,8qqqq8>,,,>2ww00w+O;+++ +w222ww>8rqqq2,,>,>2wwww8+++++O.%22w2ww>0yyqq,>>>>>2wwww8+O;++; +82w8w",
">%>8<<4%%%%+%%>>>>%.  .. ++>%;;>>.,8<<<%+%%%%%>>>>% ....O +>>%>>=%=88<<%=X%%++>:>>%.O  O.++%%>>>>%>8<<6%%+%%>>>>>>%.. .. ++>++>>",
"2,>%X3,3,43=wttttw>>8888>2tttt>22,==+533553=wteete>>882812tttw>2<,>%%343333=ttttee>=2w2w>8tttw>22,>%X363<43=wttttw>%8888>2tttt>2",
"222,#33333-&wweeee288888,etetw>222<,#344333*wweeee228828>ttttw>222<,%44433-%wwwtee888828,wtttw>2222,#33333-%wwwwee288280,etttw>2",
"<,<>#3333--#2wwwww,22<<<>8eww2>2<<,,%--3-3*X2wwwww,2<822>2www2>2,<,,X*3-33-.2wwwww<<,<82>wwww2>,<<<>#33333*#2wwwww22<<<<>wwww2>,",
"%%%%+&$&*=*@X<2282>,,,<<>>882>+>>%>%+#*****++22282>,,,,,=>282>+%%%>%.$*****@+22222>,,,5<=>282>+%%%>%.&$$*&*@X,2222><,3<,>>882>+>",
"88>+%>==++%,,>>%+%%==%==%%==%,,288%+>=-=%.%>>>>;+>%>>%==%%==>,228w%+%,=-%.%,>>>;+>>>%%%=%%>%%2,w88>+>>==++%,,>>>%>%%=%%#%+==%,,2",
"ut>,0qqq,,tautt2>2888,-6660-waattt>,00q0<>ttptt2>8880==q969-8tattt>,q0q0<>tuptt2>2828,*0006-8tatut>>q0qq2>ttutt2>2888,=q660-waat",
"88>28<<<>2wwwww>,,=,=%*-333*2www80>22<<<=<twwww>,2,,<=$3333*wwwww8>2<<<<,<e0www1,2,2<%*3333=wwww88>2<<<<>2ewwww>,22,,=&3333*wwww",
",>%>====>+22222>%>%%++X&&##X>,2>,,%======+,8222>%>%;%+#*=&&X>,,,>2%>>=>>=%222221%>%;>+X=$$#X,,<,,>======>+22222>%>>%>+X&&&&X>,,,",
"<4,4%<2,11>.:O;;++++++===,,>>%+>-3<5=22,,2>+;+;;++;:.+%%%>=,>%+-,,4<=,2,>,>++++;.+;:.++>%*>,>%.,<<4,><2,11>+;+;;+++%++%%=>=,%++>",
"99q4,atttpw;>:::::>>+>80000002><0qq<,atttaw+::::::>:%>08080ww2=47996,attttw+>:1:>>::+>88000002=67996,atttpw;:::::>>:+>80000w08%6",
"4<<-%ewwww2O;;O;;:::+%2222822<%3645-=wwwww2+;;;;;;%;+%2228222>%<666-=0wwwe2%++O;+;::+>2222822,%-4<63=wwwww2O;;;;;+:;+%2<2222<,%<",
"664-%2wwwe2.++;O++:;OO,28222,>%367<-%wwwww2.O;;O++;:OO,282222>%3673-+2ewww2OO;;OO;:+.X<28222<>#,643-%2wwww2..:OOO;;;.+2282222>.3",
"44--%8wwww>.O+OOO+;OoO,2,22,,>%5553*+2wwww,.OOOOO+;OoO,2,22,>>%363-*%wwwww1OOOO;O:+O..,,,2,,,=%464-*#0wwww>.O+OO;;;O .,,,2,,,>=5",
"-$$#+>2222> o oo. ..  +%+%%%%.%-**$$+,222,>. oOo. ..  %++%%%%+=--*#$.22222>oo   Oo.   ==%%>%%X%,-&#$X,2282>.    oooo .%%%>%>%+%-",
">=.%>2>>+>>>:>;+.+><2ww8%+,,>>>>==.X>2>>+>>>:::O.+><2ww8>+,,>>%>>=.%>,>++>>>>:++oO>28800%.>2>>+>,%.=>2>%.>>>>>;+OO128008%.>,,===",
"ue+wuaa2%2282228=0iiiiiiw,aaattaae+waaa2>2822222=0iiiiii8,ataaptte+waatw+2822888:wiuiiii0>aaaaatat+waau2+2828880;wiiiiii0>ppuauu",
"w0>wwww2>2,,2122=0rrqrrr02ewwwewew>wwww2>,,,2>>2=0rrerqq02ewwwewew>wwww2>>,2,2,,>2uqyrqrq2wwwwtwww>8www2><>2,,>,%wuqyqyq02wwwwwe",
"82>2www2%>>,2>>2>0rrrqwq2>08w8ww82>2www2+>,,>,22>0rrqq0e8=w8ww8www%2www2>>,,,,,,=0qqrqrq2>w8wwww22>2www8%>,>>2,,>wqqqqqq8=w2wwww",
",2>2>>>>.%%+%++>=<0<=>>>%.>>>>>>,>>2,>>>++%+%++>=<0<==>>+.>>>>>>>,>2,>>>.+%++%+>,<00==>=++>>+>>>>2>22>>>+%%+%%+>%,82<=,,%+>>>>>>",
"attae++,>,,,,%0eetuuw++wtttt>wtaaatae.%,,,-,<=0etttue++wtttt+ttaptape++>,,=5,%weqtaae++wtttt+wttattaw++>,,,,,=0tttaue++wette%wta",
"ttwww%<0000q8,tttteet2>awwtw>tttwtwwe%<888008,ttteeet2>twtww2ttteewww>2800q00,ttttwet22ttwww2tttttwww>2008600,rtttwet22teeew2ttt",
"wwwww>2<<<66<=080wwww2>wwww22wwwwwwww>22<6<<<%8wwwwww2>wwww22wwwwwww8><<5<825=80wwwww2>wwww228wtwwww8>22<<68<=8w8weww2>wwww22www",
"2w822>>2<<<,,+>222222>>2>2>>>2282w822>>2<5<<-+>222222>>2>2>>:222w2w22=,<<<,,=#>22,222>+222>>>2222ww22>>2<6,,>+>,222>2>%<2,,>>222",
"+%%%;+++%%>>,,=.%======X>>>>+++++>++++++%+>,,>>+%%%&=&=X:>>+%+%++;;+>++%++,,,>>.$@=*>,=%>>>>++;++>>+>+;+%%>>,>>++%==-&=%>>>>;+++",
"wt1.;11>+>autut%6744q77=28w22>ttwt>+:>:1+>upuut%,647777%2w8w2>tewt2O%>1>O>attat%3000667%2w282>ttwt>+:>:1X=paaat>,6774q7=288w2>tt",
"wt2+;;;>+2ewwww>6444333=22>2>2ttwww+::::+2twwww>6433333=22>2>,tewe2:;;+:+weweww>344333-=2>,,>2twwt2+;;;:%2twwww>4643-3-=>,2>>2tt",
"ww2>+;;>+2eewww,4443**&X>>>>,2wwwww+O+:>+2wewww>466----X>>>>12ewww2:O;:>%2wwew0,<7333**#>>>,,,twww2;++;:%2wwwww><643--*=>>>>>2ww",
"22,+..+>%>,,2>>>>=>XXX+X+%+%>>1122,+. ;+%>,,,,>>>%%%X+%X+++>>>,121>+..++%>,,2>>>>==%X#+++++>%>2>>2,+..+%+>221>>>==&%+++.+%%%>>1>",
"++><><2,,,>>%>2280w%>2>21:.>221>>+>8,,>,<,>>%>2288w+>,>,1;.>,>>>>+>2,<8,2,>>%>2288w>>,>11%++22>>>+%,>,2,2>>>>>22000=>>,11% ;22>>",
"t>eyiiqw82222waautt>>;>;:++wwtttt>eqqqw28<222wapatt>:::>;++wttetq,wyiyq822882waaatw>>:::;++wteetu>qiuyr8828828apaat>::+>:;Owtttt",
"w>8tqqq>,,,,>>wwww8+OO++O.%22w2ww>800qq,,,,,>,wwwww+OO;O+++2w2www,0tyyq,>,,>>,wwww8+O+O;+++2w2www>0yyyq,>>>>>>ww808++++++O%222ww",
">%=80<<%X%%%++>>>>%.O O .++%%>>>>%=6<<<%%%X%+>>>>,=.O  O..+>+>>>>%>88<3#X%%%+>>>>>%..... O++>+>>>%>8<<6%%%=X>%>>>>>.. .. ++>>>>>",
",<==+3<3333=wtttte>>w22w>8tttw>22,,%%55-333=wtttt0>=w288>8tttw>22,>%.333343=wtttte>>2020>2tttw>22,>%X363,43=wtttte%>8288>2tttw>2",
"22<,#343333=wwwtee288888,wtttw>2222,X44433-=wwwwet228888,etttw>2222,%44043-=wwwwet<88806,ttttw>2222>#333333%wwwett228208,etttw>2",
"<<,,X3-333-+2wwwww<<<<22>wwww2>,,,2=#3-333-+2wwww02<<<22>wwww2>22,,>X---3--+2wwww8<8<<<<,8wwww>,<<<>#3333--#2www8822<2<8,2www2>,",
"%>>%.**-***@+22222>,,,,,==882>+%%%>%.#**-**@+12222>,<<,,==282>+%%%>%X*****&@X22282>>,<<<=>208>+%%%>%.&$$&*&@X<2282>,3,<,>>882>+>",
"82%+=,==#X#,1>>++>==%%===%=%%2,w8w>.=,=-%X%,1>>>+>%>%%===%=%%,2282>X%,==%.=,>>>%+>>>=+==%%=%>>2888>+>>==++%,>>>%%>=>=%%#%%==%,,2",
"tt>,0000<,taatt1%8888,-0006-8tattt>,q0002,tuptt2>2288,-0000-8aattt,,0000<,qaatt2%2820>=7676,8autut>>q0qq2,ttatu2>2828,=q6963waat",
"w8>26<8<,,ewwww1,22,<=*3333=wwwww8>26<<<=,e0www1,2=>=%*3*33&wwwwww><6<<<,,ewwww>2222,>&3333=8www88>28<<<>2wwwww>,,<2,%&3-33=wwww",
">2%,====%%,22w21%>%;>+X#$$#X,,<,>,%=====%%,2222>%%%%++.#*$&#>,<,>,%>>%>>++1222w>+>>+=%#&&&&X>,,,>,=,====>+222221%>>%>+X&&&&X>>,,",
",<<<%<2,>,>++++;++;;+++>%*>,>%.,,<33=<2,,2>+++;O++;;++>%=&=,>%+=,<<<%22>22>;%++++;+;..%%>>=>>%.,<3,,%<2,11>+;++;+++%++%%=>>,>++>",
"7996,attttw%>:::>:>:+>w8000002=69000<uttttw+>:>:>:::+>w8000002>59976,pptttw+::>;;:>>+>00000002>47977,atttpw+1:::>:>:+>880800w2=6",
"664-=0wwwe2+O+;;O;::++2222822,%-5633%wewww8+;;;;;;:;+%2222222,%54643>wwwww2+;;;+;;>++>2222822>=664<3=wwwww2;O;O;;;:;+%2<82222,%3",
"673-+wwwew1O;O;+;++>.+,002222>%4673-+wwwww2O;O;OO:>;.X<882222>%,6<4-%8wwew2.+;;O++;:oO,28222,>%5653-%8wwww2.++;OO;:; +2282222>%-",
"63-*.wwwww1Oo;OOO:OO +>,,,,2,%%463-*Xwwwww1 o;OO;+OO .,<,2,,,%#4643*+2wwww2.OOOOO+:OoO,,,22,,=%375-*#8wwww2.OOOOO;;; .,,2,,,,%=5",
"**#$X22222> oo   o.   =X%%%%%.%=-*#$.22222> oo O o.   %%%%%>%X%,**##+2222>>.  O . ..  +>+%%%%+%,*#*$.,222>>.    oOoo .%=%>%>%+=-",
">=.%>,>>+>1>:;%+oO,228q0%+>2,>+>>=.%>,>++>1>::%+oO>28800%.>2>>+>,=.%>>2++>>>;>+;.+><2ww8%+,,,=%>,%.%,,>>+>>>>>:OoO>1800w% ,1,>%=",
"ue+wata2+2288822:wuiiiii0,ataaatte+wataw+2288882:wiuiiii0,auaaatue+watt2%22222w2=0iiiiiiw,aaatataw+wata2%2208882:wiiiiiiw>atuuta",
"ww>wwww2>,,,,,2,>8uqryqr02ewwwwtew>wwww2>,,,,,,,>2uqrrqrq2e8wwwtw0>wwwt2>,2,21,,%0rrqrrr02ewwwwwww>wwww2>,,,>>,,>2iqqqqq02ewwwt0",
"ww>,www2%,,,,,,,=0qqrqqe2>88wwwwww%2www2%>,,,,,,-0qqqrqe2>888www82>2w8w2%>>2,,,2>0rqrqwq6>w2wwwww2>2www2%>,>,>,,>0qqqq0q8=2w8www",
">,>22>>>.+%+%+%>=<08===>%+>>+>>>>,>2,,>>.+>++%%>><08>%>>%+>>:>>>,2>22>>>+++%+%+>=<0<,>>>%.>>>>>>21>22>,>++%%%%%>>,02<>==%.>>>>>,",
"pttat++>-,=,<%wetttae++wttte;wttppppe++>=5,,5%wettatt++wtttt+wtaapuae++>,,,,,=0eetuaw+.wtttw>wtatatat++>,,,,,%0ettate%+wtttt+wta",
"tetww+2w00q00,tttteet2,ttwww2tttewwww>2800008,tttewet2,ttwww2ttteewww=<008908,tttteet22ttwtw2ttttwwww%<088908,utttwet2,teeew2ttt",
"wwww8=<<<<825=0wwwwww2>wwww22wwtwwww8><<<622<=80wwwww2>wwww22wwwwwwww>2<<8<6<=8wwww0w2>wwww2>wwwwwww8>,2<<<<<=2wwwwww2,wwww22www",
"2w222=,<<<<,=#>,222,2>>2,2,>:222w2w22=,<<<<,=#>2,2222>>2,2,>:2222w822>>2<4,,,+>,22222>>22>2>>22222ww2>,26<<3=+>2222,2>%<,2>>>222",
"+;;;>+%%%+,,,>>.#@=*>==%%>>+%++++;;;%++%+%,,,,>.$@=*>==%%>>+>.+>+%+>;;+++%,>,>=.==%&&===:>>>%.%+;>+>++;+%%>,,>>++%%====X%>>>>.+>",
"wt,O%>>:+>attat%3000<66*2www2>ttwt,+>>>>+>tatut>3000<66*2www2>twwt,.::1>+>uauut=<747774=22w22>ttwt,+:1:1+>patat>,<4q77q&22ww2>te",
"ew2+;;;:+2eweww,4445333=,,,,>2twew2;;;:;+2ewwww=3445333=,,,,>>tttw2+;;;;+2wwwww>4444433%22>2>2ttwww+;;;;+2ewwww>6533-33%,,,,>>tt",
"www;O+:1;2wewww,5443--*#>,>>>2twwe2:O;:>;2wewew,<443-*-#>,>,>2twww2>+;>>%2twew8,<443--&X>>>>1,ewww2;+;;>+2eweww><63---*+>,>,,2ww",
"221+..+%+>2,,>>>%==%X#+++;+>%>2>22>...%%%>2,,>>>===%#X+++++>>>>>122+ ++++>,,2>>>==%=XX%X+++>>>11,2,+..%%%>22,>>>==*%+++.+%+>>>1,",
">+>>,<8,2,>>%>22ww0=>,>11%.+22>>:+>2,<2,2,>>>%222ww=>,1>1%++22>>>.>,>,2,2,>>%>2880w>>>>21>.+,2>>>+>2>,>>2>>>%>2280w=:1,,1% %12,>",
"r,etiyr222882waapte>>:;::++wetett,wtiyq822222waaapw>>:::;++wttttt>wiiit222202waaaut>>;>;:++wttttt>qytq0<w2222waaatq>:::%:;Owtttt",
"w,0rrrq,>,,>>2w8ww2+++;OO+%2w2ww0,0ryyq,>,,,>1ww2ww+++O;+++22w2ww10qqqq<,,>,>>www82+OO+++.+22w2ww>8q0qq,>>>,>,wwwww%O;+++O%222w8",
">%>0<<<=X%%%+>>>>>%.....O +>+>>>>+>0<<<=X%=%+>>>>>%..... O+>%>>>=%=88<<%%%%X++>>>>%.O O +.+>%>>>>+=8<<<%+%%%>+>>>%%.  ....+>>>>>",
"2>>%X443433=wtttte>>8820>wtttw>2<,>%X443433=wtttte>>2800>2tttw>2<,,%X4<3333=ttttte=>w22w>2tttw>22,,%X343,33=wtttte>>w288>2tttw>2",
"222,%34433-=wwwwet<88888>etttw>2222,%34433-&wwwtet88880<,wtttw>22<<,#44433-=wwwtee288888>etetw>222<,#44333-&wwweee228888,tttew>2",
",,<>X--3---+2wwww0<<<<6<>8www2>2<,<>X-----=+2ww800,<<<<<,8www2>22<,,X--333-.2wwwww<<<<22>weww2>,<,<>@3333--X2wwwww22<<<<>2www2>2",
"%%>%.$#*-*#@X,2222>,,,,,>>288>+%%%%%.*$*-*$@X,2822>,,<<<=>288>+%%%>%X#**--*@+12222><,,<,==882>+%%%>%.#***=*@.<2282>,,<,<>>882>+>",
"82>X=,=,#X=,,>>%%>>>%%==%%>%%>2888>X===,%.=,>>>%+>>%%%%=%%>%%>2882>+=-,=#.#,>>1++>%>=+%==%=%>,,w88%+%,=,++%,,,>%+=%==%%=%%=%%,,2",
"ut,,0q0q<>taaat2>2w28>,76663wtutut,<q000<,taatu2>2828>,76773wauttt>,0000<>taptt2>8888,-0006-8tattt>>q000,,tattt2>2888,*7860-wtaa",
"w8=<6<<<,<ewwww>>2,2,>&3433=wwwww8><<<<8-<wwwww>2222,>&333,%8wwww8><8<<<,<e0www1,2,,<=*-333=wwwwww>2<<6<>2wwwwe>,,=,=%=3333*8www",
">,%>>%=>>+22222>+>>;%%X&*&&X>,,2>>>>%%%>>.22282>:>>+=%X&&&&X>,,,>2%>>===%%,22221%>;;>+X&$$#X><<,,,%=====>+22222:%>%+++X&*#=X>,,,",
",2,<%22>11> %+++;+++..===>>>>%.>,24,>22>>2:O++++O;++.X%%>>=>>%.,,<4<=,2,,,>++++;++;:.++>=*,,>%.,,<33=<2<12>.;;:;+++%+.===,=>>++>",
"99q4>aatttw;::>>>:>>%>00000008=<7704>aattaw;:;1>::>>%>00000002=<9q76,auttuw%>:1:>>::+>w8000082=6qq00,uutttw;::::>>>:+>88000088>5",
"4443>wwwww2;;;;++;:++>222222<,%64663>wwwww2;O;;;;;;>.%222282<,=44<4-%wwwww2++;O;O+::+>,222222,=-3-<-=wwwww2O;;;O;+::+>2<2882<,%<",
"<643%8wwww2.++;O;;;; +2822222>+-664-%8wwew2+O+;OO;:;o;1222222>%36733+wwwww2OO;;OO::+++222222,=%6473-%8wwww2.++OO;;:;++,82222,>.5",
"44-*#2wwww>.O+OoO;;O .,,,2,2>>=543-*%2wwww2.+ OOO;;OoO>22>,,>>%453-*.wwwww1OOOO+O;+. .>,<2<,>==673-*#8wwww2 OO;OOO;O .,,,2,2,>=5",
"=#*#+>2222>.O   oooo .%%%%%%%.=--&#%X<222,>    .Ooo  .>+%>%%%+=--*##X22222> oo  Oo.   %%%%=%%%%=*&&$+22222>.    o oo .%=%%%%=.%-",
",=.#>2,%+%>>>>++ +116008%+>2,>%==%.>>,>%+>>>>>%+oO122ww2>.>2,>%%==.%>,,++>>>>:++oO,<20q0%.>2>>+>==.%>,>%.>>>1;;+oO128000%+>2,>==",
"aw+waau2%2208282;wiiiiiiw,aaataaat.waua8+2820282>0iiiiii0>auatatae+waat2+2288828:wuiiiii0,auaaataw+wuut2%2282882:wiiiiiiw>ataata",
"ww>wwww2>2,,,,2,%wuqqqiq02wwweeeww>wwww2>2,<,>>,=qiqqqqqw2ewwwttew>wwwww>,,,,,,,>2uqrrqr02wwwwwtww>wwww8>,,,,,<,>2iqqqqq02ewwwee",
"82>2www2%>>,,,,,>wqqqqqq8=w2www822>2www2+>,>>>,2,8qqqq0q8>w2www2ww+2www2>>,,,,,2=0qqrqrr2>w8wwwww2%2wwww%>,>,,,,>0qqqqqq8>w2wwww",
">2>22>>>++%+%%%>>,82<,,=%.>>+>>>22>2>>>=++%+%%%>=,82,>=,+.>>+>>>>,>2,>>>.+%+%+%>,<08=%%=%+>>+>>>12>2,>>>+%%%%%%>>,02<,,>%.>>%>>>",
"ataae.+>,,,,,=8ettppw+%8tttt>wtaataat++,,,,<>>2tttate++wtttt:wtappppw++>,-,,,=weqtppe++wtttt+tttatatt.+,,,,,,=0ettaae+%8tttt>wta",
"ttwwe%2000008,tuteewt22ueeww,ttttwwww+<078800>taqteet22tweww2ttteewww>2000000,tttteet2,tttw2>ttttwtww%2088988,utttwwt22teeww,ttt",
"wwwww>>26<4<<=28wwwww2>wwww22wwwwwwww>2<<<<62=28wwwww2,qwww22wwwwwww8><<<6<25=8wwwwww2>w88w22wwtwwwww>>2<<<<<%2www8ww2,0www22www",
"2w222>>2<<,<>%>222222>%<,2>>>222w2w22>>,6<,<,X>22222,>%<,22>>2282w2w2=,<<<<<=X=222,22>>2222>:22222w22>>26<<3=+>222222>%<,,,>>22w",
"+>+>+++;#%>>,>>+.%%===-%+>>>>.+>;>;%;+++%%,,>>>.+%$*#*$X+>%+%+%++++;%++%%+,>,>>.$@%&>==%%>>%%+++:>++>+;+%%>,,>>+.%%====%+>>%+.%;",
"wt>+>>:1+>paaat><84q777%2w2w2>twwt1.>1>1+=uuaaa><<00060=2www2>tewt2O>>>>+>apuut>300q<60=2w8w2>tewt2 >>11+>patat><8q477q#2www2>tt",
"tw2+;;;:+2ewwww>673333-%,2,,>>tttw2O+;;:%2wwwww>55-<333=,,,,>1ttew2:;;:;+2ewww0>3433333$,,>2,1ttwt2+;;;:+2ewwew>6733333%,,,,>>te",
"2t2>+;::%2ewwww>3443--*%>>>,,2ewww2:;+:>+2wewww>575-*-*#>>,,,2wwww2:O;:>;2weww0,<743-**#>,>>>2ewww2:++;:+2wewww>4443--*+>>>,,2ew",
",2,+..+%+>22>>1>===&++#++%%%>>>1>22+ .+%%>2,>>>>===+X+++++%%>>,>221+..+%%>,,2>>>===%X#++++%>>>,1,<,X..+%>>>21>>>===&+++.+%%%>>1>",
">+><>,2,2>>>>>2208w=:1111% +22>>>%>>,>,,2>>>%>2808w;>,11>>.+22>>>+>1,<<>2,>>%>222ww%>,1>1; +2,>>>+>,>,2,2>>>>>2288w=>>,11% ;22>>",
"t>qyuyr8828228aaatt>:::%;;+wttttt,qyqq02822w28aaaut>>;>;:++wtettq,wyiiq2w2282waappe>>:::;++wettet>qiuur0222828aaatt>::>;:;Owtttt",
"w>0yyyq,>>>>>2w8ww8+O+;++O+822ww0>0qwqq<,>>>>2ww8ww+O+.++.%w22www,0tyyq<>>,>>,wwww2+++O;+ >2w2www>0yyqq,>>>>>2wwww8+O;+++O%222ww",
">%>8<6<=%+%%%%1>>>%.. ....+>>>>>>%=8<<<%+%#%%%>>>>>...  .O+>>>+>>%>8<6<%X%%%+>>>>>%..... O+%;>>>>%>8<<<%%%%+>%>>>>%+. .. ++>>>>>",
"2,>%.363<43=wttttw>%8888>2tttw>2<,>%X343<33=wtttte%>8880>2tttw>22,>%.443433=wtttte>>2880,2tttw>22,>%X344<43=etettw%>8880>2tttw>2",
"222>#33333-%wweeee288888,ttttw>222<,%343333&wwweee2288822wtttw>2222,%34433-=wwwwte<88808,ttttw>222<,#33333-&wwwwte228288,etttw>2",
"<<,,#33333*#2wwwww22<<<<>2www2>,<<<=%----3-@2wwwww,8<<22>wwww2>22,,>X3---3-+2wwww8<6<<<<>8www2>2<<,>#3333--#2wwww822<<<6,2www2>,",
"%%>%.$$*=*#@X<2282>,<,3,>>882>+%>%>+.#****&.+22222><,,,<=>202>+%%%%%.$****&@X,2222>,,<<<=>208>+%%%>%+&$&=**@X,2282>,,,3,>>882>+>",
"20>.>>==%+=,,=>%%>%=%%%&%%=%%,2288>+%,-,%.=,>>>;+>===%%=%===%22288>X=,==%.%,,>>%+>>>=+==%%=%%>2888>+%>=,++%,,>>>%>%==%=&%%==%,,2",
"tt>,0qqq,1ttutt2>2888,=0670-8aattt,,00q0<,taptt2>2222,-7767-8tatut,,q0q0<,qaatu2>8220>,4676,wuatat>>0q90,,ttutt2>2888,=06963waat",
"w8>2<<<<,2wwwww>,2,<<=&3<33*wwwww8=<<<<<,<wwwww1>2>>,=&3333=wwwww8><<<<2,<ewwww>>222,%&3333>8www88>2<<<<,2wwwww>,2,<,=&3-33=wwww",
",,==,===%+222221%>%%>+X&&&=X>,,,,,%=>==>%+,22221>:>+%+X#&&&#>,,,>>>>%%>>:+222821+>;>>XX&&$%#>,,,>,==,===%+222221%>%%>+X&**=X>>,,",
",<4,%,2,12>+;O;;+++%++=%%,=>>++>,<3,%,2,,,>+;;:OO++++X==%>>>>=.,,24,>22>12>O++++;;;+.X%%=>=,>%X><<4,%<2,12>+;+;;+++%++%====>>++>",
"7996>aurtpw;>:::::>>+>88000808%699q6,uptttw+:::>::>>%>00w000w2%46796>aatttw;:;>>::>>%>00000002=<7996,aurtpw;::::::>>+>80w0w002=6",
"664,>ewwww2O;;O;;;::+%22<882<,%<665->wewww2+O;;;O:;>+%<<22822>=66663>wwwww2+O;;;+;>++>222822<,=4664,>wwwww2O;;O;;;::+%<222222,=3"
};
