/* XPM */
static char *_93885a19f694df289f7215f6ed163ef[] = {
/* columns rows colors chars-per-pixel */
"128 128 89 1 ",
"  c #030303",
". c #070708",
"X c #070809",
"o c #0A0B0B",
"O c #0E0F10",
"+ c #0F1011",
"@ c #121314",
"# c #161719",
"$ c #17181A",
"% c #1A1B1D",
"& c #1D1F21",
"* c #1F2022",
"= c #222325",
"- c #242629",
"; c #27292B",
": c #2A2B2D",
"> c #2C2E31",
", c #2E3134",
"< c #313436",
"1 c #333639",
"2 c #36393C",
"3 c #393B3E",
"4 c #3C3F43",
"5 c #3E4145",
"6 c #414346",
"7 c #42454A",
"8 c #46494D",
"9 c #494B4E",
"0 c #474B50",
"q c #4A4E52",
"w c #4D5155",
"e c #4E5358",
"r c #525456",
"t c #52565B",
"y c #55585D",
"u c #595B5D",
"i c #565B61",
"p c #5A5E63",
"a c #5D6065",
"s c #5D636A",
"d c #626466",
"f c #62666C",
"g c #64686C",
"h c #6A6C6D",
"j c #616770",
"k c #656A72",
"l c #6A6E75",
"z c #696F78",
"x c #6F7072",
"c c #6D737B",
"v c #727375",
"b c #73767C",
"n c #77797B",
"m c #7A7C7D",
"M c #6F7680",
"N c #717780",
"B c #747B84",
"V c #7B7E82",
"C c #777E88",
"Z c #787F88",
"A c #7E8183",
"S c #7C838D",
"D c #7E8691",
"F c #828385",
"G c #848689",
"H c #86888B",
"J c #8A8B8C",
"K c #808792",
"L c #838A95",
"P c #8F8F90",
"I c #868E99",
"U c #888F9A",
"Y c #8F9091",
"T c #8A929D",
"R c #939495",
"E c #979899",
"W c #9A9B9B",
"Q c #8E96A1",
"! c #9098A3",
"~ c #9F9FA0",
"^ c #A3A4A4",
"/ c #ABACAC",
"( c #AFAFB0",
") c #AFB0B0",
"_ c #B3B4B4",
"` c #B7B7B8",
"' c #BBBCBC",
"] c #C5C5C5",
"[ c #CCCCCC",
/* pixels */
"HHHHF[[DGITQ!!!!!!!!!!!!!!!!!!!!QLDSSD[[4aJJYJJJ[[TTTTT!!!!!!!!!!!!!!!!!!!!!!Q!TIITTIKL[    [STQ!!!!!!!!!!!!!!!!!!!!!!!UQQ[JPPJP",
"HHHHH$[K[[KTQQ!!!!!!!!!!!!!!!!!!!!QQDDS[[[[FJJPJ<[[TTTTTQ!!!!!!!!!!!!!!!!!!QQTLITTSDLKL[    [DTQ!!!!!!!!!!!!!!!!!!!!!!QII[[JJJPJ",
"HHHHH= [[[[ITTQQ!!!!!!!!!!!!!!!!!!!!QQDDDL[[[FHG$  [[TITTIIIQQ!!!!!!!!!!!!!TITTIISSDSL[     [[II!!!!!!!!!!!!!!!!!!!!!QILK[nJPJJP",
"HHHKH<     [[[LU!!!!!!!!!!!!!!!!!!!!!!!TSSLT[[6q%.  [[TTITITTQQQQ!!!!!!QQ!!QQTII[[[[[[  .   [ILI!!!!!!!!!!!!!!!!!!!!!UDQI[FJJJPJ",
"HHHHH4.      [[KKQQ!!!!!!!!!!!!!!!!!!!!!TDSSI[444<O  [[[[[[TTTTTTTTTTTIDLDDDDDL[       .. . [LLI!!!!!!!!!!!!!!!!!!!QTKLI[[9JPJJJ",
"GHHHGFd=O    =4[[[LUQQQQ!!!!!!!!!!!!!!!!QQLSD[444443<:><-%[[[[[[[[[[[[[[[[[[[[[[ .. . .... .[DKT!!!!!!!!!!!!!!!!!!TLDL[[[45rJJJJ",
"NxyxAFmVvdd&7644[[KKLLITQQ!!!!!!!!!!!!QQQQISD[444445444444535,+                 .  .. .[[[[X[[SDI!!T!!!!!!!!!!Q!QIDSD[-44544rJYJ",
"o   @vAFFFFFAg544[[LDIDTTTUQ!!!!!!!!!!QTTIIDD[44444444444454554*           XoooX.....[[ISDL[X[DDIIQI!!!!!!!!QTTIDDDL[[4444444rvd",
"     o6mFFFFAv6445[[[DQUQQQQQQQ!!!!!!!QULDDD[[444[[[[[[554443554>...     O:24[[[[[[[[[QLLSL[X[[LDILI!!!!!!!QIILDDL[[[3554[[[[@  ",
"[[[[[[[6nFFFFAq544445[[[[[[[[[[QQQ!QQTLDDLL[[44[[[KKKL[[[54455444>;*--$&1444[[IIQQ!!!!QUDSL[oO[DLLLITQ!!QQIDDLLI![[:5445[FSDK[[[",
"!!TT!![.%4nFFFm644444444444444[[TTIIILIDTI[[544[IIIDLTTII[[4355[[[[[[[[[[[[[[IT!!!!!!QQLSDQ[X>[[IDSLIQQTILDDIT[[[ *5445[[TIIILLI",
"IKKIQQ[   .%lxmy44[[[4444444444[[LTIIITLI[[4445[TITTTT!!!TI[[[[[IIIUTDIDDKDLTQ!!QQQTUIKDDI[[.24[[ISSTTQTTTTQT[[  +344[[ITYILIIII",
"KLLLLL[[     O%@44[Q[[[[44444444[[[[[TT[[[44444[TIIITQ!!!!!!TTITTQTQ!!!QTTT!Q!!QTQTILLLIQ[[..244[QLDDDITQTTI[[   254[[IIILLILLIT",
"ITIILII[[[[[[[   :[[QUI[[[4444444444[[[[4444444'`BNSKIT!!!!!!!!!Q!!Q!!!!!!!!!QILLDLLL[[[[  ..444[[QIDDDDDDI[[   -544[QQTTIQ!!!QT",
"Q!!QQTTITTTT!![[[ &[[LILLL[[[4454444444444444444EgfscBITQ!!!!!!!!!!!!!!!!!!!QULILIID[      ..4444[[LDLIIII[[   O4444[LITQT!!!!QT",
"!!!!QTTQTLIIILLI[[ &[[[ILLID[[[[[444444444444544daqwyjBIT!!!!!!!!!!!!!!!!!!TQIILLII[        .44444[[IITDD[o   .44444[TQQQTQQTTT!",
"!!!!!!!!IILDLDLLU[ X244[[LLDIDDD[[[444544444444444658ezDQQ!Q!!!!!!!!!!!!!!ILIK[[[[[          244444[[TL[[42#o=344444[QTTTQQQQ!!!",
"!!!!!!!QTIULIILLL[ o1444][IITQTQLL'_44444ldrq65544446ysBUQ!Q!!!!!!!!!!!!TIKII[[O*o    [[[[[[ #444444[[[[44555554444[[QQ!!!!!Q!!!",
"!!!!!!!!TTUQTTQQI[.#44444'][]DDCBclR4544y964554444444tpBLQQQQUU!QQ!!!!QIIKIT[[.o=o    [KDDDQ[[[44444444444555544444[TQ!!!!!!!!!!",
"!!!!!!!!TTTTUTTTQ[&]`/WWW4555/~Pfsyg444465444444444444FNDDKLIKLIIQ!!!QIDKKI[[ .,v:.  [[IDDDIIL[[,44444545585445444[QQQQ!!!!!!!!!",
"!!!!!!!QQQQQQTTT[&4`lpietnG5444fp8q84445444444444444444_IUIUIIIUIQQQQDDIUTI[ ..4vdo  [ILEUDDKIK[[XOO@-<47uu7444[[[[IIII!!!!!!!!!",
"!!!!!!!QQUTQQ!![]44Wt85556ud4444655444444444445464444444][QQUQUUITQQDDDITT[ . ovFF*  [IQTTQQKKTT[[[    @gvd644[[DDIDDITI!!!!!!!!",
"!!!!QQQQUQQUUI]]444b8544555585454544444444455668y444454444[[!ULUIDSCBSDII[[#%-379y>  [TTTI!!TIIIIIQ[[   6vu444[TDTIIQTTQ!!!!!!!!",
"!!!!QQIQTTULL'_-44c8544445444444444444555567qeetFH4444444444[[[ULDBBMM^/_4444444454+[LITT!!!!!TTLTIL[   .g945[[TTTITTQQ!!!!!!!!!",
"!!QQ!QILIDSCcW,<44e54444444544445444446660wislkll_4445454444445]`/RFBmm544444444444[[TTTQ!!!!!!!QTDDQ[   @553[LIIIQ!!!!!!!!!!!!!",
"!QQQQQIDBclsn2244554444444444445554444udislbSDSBBZ[444455554445554444444444445`]][[HITQ!!!!!!!!!QQDS![   .755[ITITQQ!!!!!!!!!!!!",
"!QTQIDBzsywtq44444444444444455559r44454JMBSLITISD[[444454554444^Fdq74444354gbFENCSIITQ!!!!!!!!!!Q!LDT[   #v73[TTTQQQ!!!!!!!!!!!!",
"!QIIScse855544444444454444445660tn444444/)__``'Z]]444444454444(Pw544444464768qtpjcCLTQQ!!!!!!!!!QQDCD]oo+8n5o[QTTTTIQQQQ!!!!!!!!",
"QQTLMsq55544444444444454444580wej^)44444544444Y^/444454444445'^i854444444446467qtajMSLTQ!!!!!!!TQIBcB/-=*2l,#]DQQQDIIIDTQQQQ!!!!",
"TTTDce85444444444444444444455ipsMS]45444444444ru44^_'][[44445`je554444454444444558qifcDTQ!!!!!TTDCkskF<<,22>-']TIQDQQTQIQQQQQQQ!",
"QTISjq544444444444444444444qlDDDLD[`4444444444q449yijMZL[[444/sq55444455444444445555wscDTQ!!!QTDMjeeqy4424411;&][QQDLIIIIIIIIIII",
"QTIBs0544454445444444444448sSTUTTTS/44444445444449q86icBK][44Ei7554454856444444454555qsBIQ!!QQINst85554444444<-#.[[QIQTTQTTTQTQD",
"IILCje74444444444444444444qcDKDSSDDR444444444444445558epzK]44Jd5445555pw00554444444455ycDTQ!TTSci8454444444444>*O [[[QQQTQIILDTD",
"IL['~mu4445545454444444445tcSDDLLL/F44444444444444544550pz`'44r4444545mfptq55544454455ezDQ!!!TSct544444444445yH/][!Q[[[[[[QQIUQT",
"[[[o&>123445qw888854444455iNKIIKI'W4444444444544444444450iN^4445445644Ecjiq55544444455ecDTE!!TSci6545444444458pCI[[[[eq08[[[[[QQ",
"[   +&;><<1<missst05444455jSLIL[['<24544444766544444444450sE444444585FEcse055444445558ibIT!!!TLNiw884444444450sCDTQ![[e0855555[[",
"   [[]'`//=//BZZNje7454458Y`[[[[4<<45444444tq0555444444447tF4444445w4Asiw555444444456tlSTQ!!QQISkstd444444445qfBITQQQ![e00555555",
" [[[TTTIT]]]ITKTKct65444884444444<<u6444444vpi085444444447ev444455632ce8555544444550ygBIT!!TTQTSZbEV244444558ycITTTTT!Q[tt55eeee",
"[[KKKLLITT!T!TTQLci54444744444444/Fy5444444JEHe85445444447wg444444555e555455555558escSITTTITQIDL]'/,245544550sAITILITQ![[e00sB[[",
"IIITTTTTQTT!!!!QIMi85445654444[[]Ms8544454444vy55444444450da44454444555444555558eskBKTTTTIIILDI[[@=,28545555ycLTQITTITTT[[5[[[DD",
"!QQTTTTTTT!!!!!!INi8444444444[[TLBa8544444444476444444447qg4444445555544444550wakBDITQQLLLDDDL[ X$:2e744445qsZTTQQ!QQI!ID[5[DDDQ",
"TTITITQ!!!!!!!!!TCs8444444hW`[IILSsq54545454444444444457qyd44444445554445555qijMSIQQ!!QTLUQQQ[[.#-,40544448icKT!Q!!!I!!D[[8[QQ!!",
"TQQQQT!!!!!!!!!!TSj0544445ujSITTLSsq544456q444444445558tsnp4444444444444559tscSLTQ!!!!!!DK[[[[.+&>44544445qjSTQ!Q!!!!!Q[[50[QIQ!",
"!QQTQQ!!!!!!!!!!QDjq5444448aNLUQLBsq55444476444444558qtPJx444444544445558wacCDTQQQ!!!!!QDL[   O&><44444458icIQ!!!!!!!!![i50[QQIQ",
"QTQ!!!!!!!!!!!!!TSle5544445ycSIIKNsq54444455445458rhARFl5444444444444558esMSTQ!!!!!!!!!QDL[  O%:444444455ejBT!!!!!!!!!!![05[[DQ!",
"QQ!!!!!!!!!!!!!!ISci8544445elSUUTSf054444444444444444444444444444444456qilBKTQQ!!!!!!!QTDI[ o%:124444445piNSQ!!!!!!!!!!![j0q[[I!",
"!!!!!!!Q!!!!!Q!IDDBs0544555elDT!TSj0544444444644444444445544444444445558eilNSLTQ!!!!!!QIDL[X#;<p84444444xECKUQ!!!!!!!!!![[05q[[D",
"TT!!!!TTTTQQTTLKID`Yf544455elKTQTSjq6444444459u444444444454444444445555568eijbSIQ!!!!QQTD[[@=<3q44444442>(DLIQ!!!!!!!!!!Q[[50t[I",
"IIQ!!!QQTTTQQIK[[['54444445ekDUTISf8544444568qm54454444485444475554444445558wikBLT!!!!TIS[o&>2444444583<;'[IIT!!!!!!!!!!!Q[[00[Q",
"DDDDIIIQTTQTIT[[55454444445wjC][]/Fu6544457uxH~56gVh545y7444457755544444444558wscDT!!QQLS[+*<45444545wh,-%'LITQ!!!!!!!!!QQQ[e5[[",
"[DDSSDSDLKLLTI[58uaw8654446qf_] +=2444444444545dAFAA844q444457000855444444444550icDT!QTD[[$;<454444457d<,;/_SLIQQ!!!!!IQQQU[[00[",
"[[[DDDDDDDDDD[3vFJFnu854446uG/+.@=<4444444445wmFAAFAx55954447qpptyqq4444444444458icDQTID[.#>2q444445568p22<YzMBLIQQ!!QQIDLDLQ[5p",
"  [[[[[[[HS[[rJJJJFnp9444454<=+ @=<u554454440VAFAFAVve4844458pzZBcfx2444754444445wjSTTLL[.$;<w5444444556842fipjzCDIQDLDILLLLU[5t",
".        [[[%mJJJJGnd9444456<=@.+=,u55444447nAFAFAFVvd584457ekZUILSW,<234654445455iMHLT[  +=Gw54444444445444wqeisjzMZDI[[[[[Q[85",
"&$o..     .%FJJJJJGnd9444444<=@.+)Hu5444444pnVAFAFAVvg7r757qpNLQQQTI_-,11465444455tzSK[[ .o$^iq755544444444455550tpjcD'X   [[[w0",
"[[[[>=$+@@@mJJJJJJGnd596448hR_][]_sq5444444tnAFFAFAAmhw4yqqpcSUQ!!QQ]6mnr348544455tkAS[   .]_kiq6555544444445554555eiR(#O     [[",
"TLL[[[55555qGJJJJFh95mt5558aNKTTISjw554454448hmVAFFAmv744mFbZUQ!!!!!T[rFVh93963669ucD[[ . .]LBcsie066555545444445569y2>*@.   [[I",
"LILIT[[[44445uJJu63])se875ejNSKKDSci8544444444457tgBnq5444^(UQ!!!!!!![6hJFxd9rq9uxkA][ .  .]SCBccfspyq0555444444444444<;$o   [IL",
"DLLLLII[[[444555555]INksi5sNSIIIILSfw54444444][[[44555444444]!!!!!!!![5wFJFnhurr6E/'o .  .]SBBBNcNNczjpeq89444444444441;&O   [LI",
"ILITTTTTT[[[[455435[DHSBNsSITQ!!QTLci86444xW_SKI[[[544444444[!!!!!!!![[5qFJFmnxxvmFJn#.  []ZBlsslMSDDSBcsih2444455556tm;`][[[[LL",
"TIIIIIIILIIL[555544[KITLLKTTQ!!!!QISfx444kHbSU!UU!![[[[45444[[!!!!!!!![34rmJJFFFFJJJH-.[[]IAcpeepcALTTILBczH<224q6668eL/'ULILTLT",
"!!TTIILTTTTT[[55554[IT!TQQQQ!!!!!QLSME<4FcBZI!!TT!!!UU[[44444[[!!!!!!![5459mJJJJJJPJJ[[[LILSzt88ilSITQQQICC(;>,VxwwwiplNSDDDDDIT",
"!!TTIIIILLIII[5531<[T!!QQ!!!!!!!!TIL'_->^ZZLU!!!!!!!T!![[[[4444[[[!!W[[44449F[[JJJJF[HDDILSCcseepcSIQ!!!QIS]'&=^lffjlcDITTIIUQQ!",
"!!!!Q!TQIIII[[:*O.[[Q!!!Q!!!!!!!!TQQ[+#'LZSU!!!!!!!!!TIILUQ[[[445[[[[444444[[[[[[Jg%[[IIILKDBzsslBDTQ!!!QDSD[o+'LCSDLLUQQQQQ!!!!",
"!!!!!!!!QTL[[     [Q!!!!!!!!!!!!QTTT[ .[SDT!!!!!!!!!!!QIIIT!![[45544454444[IITTTQ[. .[TEQQISCCNBSSTT!!!!TLK[   [TIKTIQQQ!!!!!!!!",
"!!!!!!!Q!QQ[     [[TQIQ!!!!!!!!!TQTL[  [DTQ!!!!!!!!!!!!!TQQT!!Q[3544444444[KKIIII[[...[!!TIILDLKIIT!!!!!TI[[   [IIILTTQ!!!!!!!!!",
"!!!!!!!QTI[[    [QQTTIQ!!!!!!!!!!QKU[ [LIQ!!!!!!!!!!!!!!!QQTQQIT[[44444444[IDKKKLDL[ .[[[!Q!QQTTTQ!!!!!TIL[    [DLILTQ!!!!!!!!!!",
"!!!!TQQQT[[    [QQTQQ!!!!!!!!!!!QII[[ [TT!!!!!!!!!!!!!!!!Q!QQQQQ![[5444444[TDIKTUIII[.. .[!!!!ETTTTQTTIKLD[   [[LDKIIT!!!!!!!!!!",
"!!!!QTTT[[    [[TQQTT!!!!!!!!!!!QTI[  [QT!!!!!!!!!!!!!!!!!!!!!!!!T[[654455[KLITQ!QTT[[..X.[[TTT!QQQTTTITIT[   [PILDLIITQ!!!!!!!!",
"!!!!!TTQ[.  [[[LIIIT!!!!!!!!!!!!TTL[  [IT!!!!!!!!!!!!!!!!!!!!!!QITT[444445[DITTTT!Q!T[.oXX.[TTTTTIITIIIITT[   [[DILLIKITQQ!!!!!!",
"!!!!!!!Q[.   [[IQQ!!!!!!!!!!!!QQQIL[ [!T!!!!!!!!!!!!!!!!!!!!!!!QTTT[444444[IDT!QT!!!TT[[oo.[TTTTDIIDITTTQT[[   [[[[[[[SDTTTQ!!!!",
"!!!!TTT[   . [[Q!!!!!!!!!!!!!!!QTK[  [TIITT!!!!!!!!!!!!!!!!!!QQTII[[445444[LTTQQQ!!!QTUT[[. [LLSSSDDSDDHKKS[[   .     [[[LLLT!!!",
"!!Q!TTT[ . . [T!!!!!!!!!!!!!!!!QLL[  [DDLIQ!!!!!!!!!!!!!!!!!!!QII[[4444444[I!QTT!!!!QTIIJ[@$O[[LDIDDLTLLIIL[[.@3du9#    [DDTIQQQ",
"!TTTQQ[[. . [TT!!!!!!!!!!!!!!!QITT[  [IQT!!!!!!!!!!!!!!!!!!!!!!T[444444444[IITIQ!!!!!ITT[6JJv<[[[[[[[[[[[[[[o6JJHJHm-   [SSSDDLL",
"!!QTT[[. ..[[IE!!!!!!!!!!!!!!!TII[  [T!!!!!!!!!!!!!!!!!!!!!!!!!T[544444444[DLLIQQ!!!TQQQ[JJYJJ:.o@+@+o.....OdGJJJJHJh%  [[[SDDDL",
"QQTQ[[  . .[II!!!!!!!!!!!!!QQTIIQ[  [T!!!!!!!!!!!!!!!!!!!!!!!!QI[444454444[ILDDILTQ!!QT[2JYJJJr.o@$#@o.o..o@JJJJJHJJH6    [[[LDL",
"[[[[[    .[TIQ!!!!!!!!!!Q!!TLTTTI[  [Q!!!!!!!!!!!!!!!!!!!!!!!!TQ[544444444[TILILLKDI!W[[rJJJJF-..+@@+oX....*JJJJHHJHH3 .    [[[[",
"        .[[TI!!!!!!!!QQQTTIITTTL[   [Q!!!!!!!!!!!!!!!!!!!!!!!QII[[44445444[[[LLITTTTU[[ :FJJ[[[[[[[[[[[[[  *GJJJJJJF6o         .",
"     +%%+[QQ!!Q!!!!QTTQQQ!QTPDT[[  [TQ!!!!!!!!!!!!!!!!!!!!!!!ITIQ[4444444444[[[[[[[[[[  o:=[[QQTILTE!Q!![[[.7JPJJm7o     . . ...",
"4446uJFp6[IITQTQ!!QQIITTTILLLT[[. .[Q!!!!!!!!!!!!!!!!!!!!!!!!TQQQ[[444444444444$o      ..o.[TLIILIITQQQQRQ[[@6dh3o[[[[[     ....",
"44446dHF7[[TTTTT!!!!!!TTLIIT[[[   [!Q!!!!!!!!!!!!!!!!!!!!!!!!QTQ!![444444444444<=#.   .@oX [LLDTTTTTTTITUIU[ .@@.[[W!![[     .. ",
"[[[459nFx2[TTTTT!!!!!!ILTTTT[...[[!!!!!!!!!!!!!!!!!!!!!!!!!!QTLI![[444[[[[[[[[[444533234<+[III!!TTTTTTTILIT[[  . [!!QII[      [[",
"IK[[47nHF9[TIITTIT!Q!TTTQTTT[ ..[!!!QTQQ!!!!!!!!!!!Q!!QT!!TTTIYT[[455[[Q!!!!!![[[[54555544[QQ!QTT!TTIIITTTTT[   .[!!IITK[    [[!",
"LLS[26dVFH[[KITTTITTTTITTT!T[ o.[TIIILIIIITQUIT!!QQILIIIUTTILTT[[42,[[!!!!!!!!!!![[5444455[Q!QTQ!!!TTTTUTTTT[   [!!TTIIT[[  [[!!",
"IDL[Xo9vGJG[[[IIIIIILDKSLK[[[ . [[[IIILITTTIILKSIDLILLLITQTTT[[:+X.[[[!!!!!!!!QQ!![444445[[TIITQTT!!TTT!TTTU[[[[[TIKITTTT[  [!!!",
"QTI[ .@pGJJJJA[[[[[[[[[[[[[   .    [[LDDIILSKKSKKIITQT[[[[[[[F<.. [[!!!!!!!!![[[[[[4444[[[ITQQQTT!!!!!!TTTTTQ!QUITTTIITQQQ[ [Q!!",
"TIT[  .vJJJJJJGo.           .        [[[[[[[[[[[[[[[[[    %FJJ3   [!!!!!!!Q[[X..-4444[[[IITIIDDT!!!!!!!TTT!TTTTTTILIKIT!T![ [[!!",
"!TT[  .vJJJGJJJ+[[[[[[[     [[[[[[[[[[[                  .7JJPr   [!!!!!!!![.....<4[[TILILDLIIQ!!!!!!!!!!!T!!TTIIUTTQQ!!QQ[[ [!!",
"!!TT[ XxJJJJHJH*.[[SSK[[[[[[[DKDLIIILII[[[[[[[[[[[[[[[[[ orHJJs.[[[!!!!!!![[ ..[[[[[LLLLLIIQQQ!!!!!!!!!!!!!!!!Q!!!!!!!!QQKI[ [QQ",
"TT!![  5JJJJJJJ2[LLIIIIIIIIILDDDDDDLILLLKKLDKIIIIIIQTQQ[[[vJFFh.[!!!!!!!![[    [TKLKLIITTTTT!!!!!!!!!!!!!!!!!!!!!!!!!!!TLKI[  [!",
"!TTT[  #HJJJJJJr[IIIIIIIIITTTTQQQTTQQTUIIIIIIIILILIITTIIT[885541[[[[[[[[[    . [TTTTTQQTTTT!!!!!!!!!!!!!!!!!!!!!!!!QTTDSDI[[  [!",
"TTT[[  ouVAHGGh9#[[[TTTTTTTTTTIQ!Q!!!Q!!!!!QTIIIIIIIILIL[[4445442+           . [ITIITTQT!!!!!!!!!!!!!!!!!!!!!!!!!!TITTTTQ![   [!",
"T[[    *5555555551+[[LIITIIITUTT!Q!!!!!Q!QQQTTIQQQTQTQ[[[444444454$         .  [[ITQQQQ!!!!!!!!!!!!!!!!!!!!!!!!QQQTTTTT!![[   [[",
"![ X  [[[[[55444544>o[[IIIKLLIIIIILILLUQQQQQITIII[[[[[44444[[[[[[[[[[[    .*>%  [IIIITT!!!!!!!!!!!!!!!!!!!!!!!QTTTTTTQ![[[     [",
"[[   [DDSDI[[44555555>o[[[[!QT[[[[[[[[DLDDDDLD[[[4445554[[[TQIIIIIIQTT[[. +dvd@ [KLKKKIQ!!!!!!!!!!!!!!!!!!!!!!QTTQQT[[[[      ..",
"X X [[TDDDDHL[[44445542@ . [[[        [[[[[[[[[4554445[[[TIPDIIIIII!!!TQ[[:VFm4 [[TIITQQQ!!!!!!!!!!!!!!!!!!!!!QTQ[[[[       ...o",
" ..[[ILDIIIDDD[[[4444444#                  O>54454444[[TTLQTTTTITUT!!QTTR[:mFm4  [IIDIQIIQ!!!!!!!!!!!!!!!!!TUILL[          [[ oa",
"X  [IIUDITTTIIIIT[[455442$.. XXX@2424323434555555444[IILLIITIIQQT!!!!!!!![:mmm3o [QQQQIIQQ!!!!!!!!!!!!!!!!!!QTT[[         [[[[>A",
". [[UTIUT!!TTTTTIUI[[5454&oXXoo,45445455544554554444[DDLIITUTQQ!!!!!!!!!T[%xFFd# [IDIDIQTQQQ!!!!!!!!!!!!!!!!QTQ[    [[[[[[[IK[+Z",
"  [IUIUU!!!!TTTUIDIDD[[[[&oXXXo2554444[[[[[4554444[[LITQQQQ!Q!!!!!!!!!!!T[@vJFF; [[QIDDDDIQ!!!!!!!!!!!!!!!!!QL[    [[!!!QQIL![.f",
"  [DUDTT!!!!TDDIDDDDDDITT[[[[[[[4444[[[!Q!Q[4=o[[[IIT!!!!!!!!!!!!!!!!!!!![%vJJG3   [IDDDDIQQ!!!!!!!!!!!!!!!TLT[    [KKLLTTKT[[ #",
"  [DITT!!!!!TTTTIDDIIDDDLDIT!!T[o-44[!!!!![[#.[[TTT!!!!!!!!!!!!!!!!!!!!QL[56mLHdo   [[IDDQQITQ!!!!!!!!!!!!TTII[   [TTTTTTIIT[   ",
" [DITT!!!!!!!!!TTTTUIIDIIDDITILT[.o-[!!!![[#[[TTTITT!!!!!!!!!!!!!!!!!!TI[44455544<<442[[!!QIQQ!!!!!!!!!!!!UTI[    [TTTQ!Q![[[   ",
" [IUTT!!!!!!!!!!!!!!!!!!TUTIIILT[  [[!!!![  [IIITQQ!!!!!!!!!!!!!!!!!!TIT[44445544444555[[DDIIIQ!!!!!!!!TTTQII[    [TTIQ!QQ[     ",
"[DIIT!!!!!!!!!!!!!!!!!!!!!!!!TTT[ [[!!QQ[[ [[TQ!Q!!!!!!!!!!!!!!!!!!!!II[[44444444444444[[IDILIIT!T!!!!QTQTTT[    [[QQ!!TT[     [",
"IITUT!!!!!!!!!!!!!!!!!!!!!TTTTTT[[[!![[[[  [QTTTQ!!!!!!!!!!!!!!!!!QTIIT[44444[[[[[[[4444[QTLDDLIKTT!QQQITTT[[    [TT!TT!![   [[[",
"TTTT!!!!!!!!!!!!!!!!!!!TTTIIDID[ [[Q[[    [TTIITQ!!!!!!!QQ!Q!QIIIKKKI![[445[[LIILLQ[44444[QQIDDDSIILILLKIT[[     [LTTILLI[   [SS",
"IUUT!!!!!!!!!!!!!!!!!TTTIDIIID[  [[[[    [[TITIQQ!!!QQTILLIIDDDIKLLIII[544[[DDDSDSD[44444[[[[[[[[[[[[[[[[[       [[KILLK[[  [[DL",
"UTT!!!!!!!!!!!!!!!!!!!TTIIIID[[          [IDTTT!!!!!!QTTTILDDDUTT[[[[[[444[QULQUQUQ[[4444>..                       [[[[[[   [DDD",
"TT!!!!!!!!!!!!!!!!!!!!!!TIII[[ X  .. . [[LDTQ!Q!!!!!!!QTTILTTT[[[444554554[ILQQ!QQQQ[[44444,*+.      [[[[[[[[[[[[       .. [[DLI",
"TT!!!!!!!!!!!!!!!!!!!!!TTTDU[.X....XX[[[TT!!!!!!!!!!!Q!TTIIIT[  o555555444[UD!!!QQQQQ[445444444*.[[[[[QQTIIILIQTI[[    .. .[DLII",
"T!!!!!!!!!!!!!!!!!!!!!!!TDI[[ X [[[[[[IITTTQ!!!!!!!!TTTIITID[[  .8nAmdw544[UDQ!QQIIIQ[[4444[[[[[[[SSSSSSSSDDSDDDLKD[[   .  [UIIT",
"!!!!!!!!!!!!!!!!!!!!!!!QDI[[ .[[[ITTIIITQTTQ!!!!!!!QTILDDDDL[  ..2HHJJHh65[[SDTQ!!QQTT[[444[IDDDDDDDDITIIILIIIIIIIIIT[     [II!!",
"!!!!!!!!!!!!!!!!!!!!!!TDII[   [TTDLLLLLLLLTQ!!!!!QIIILLLD[[[     %HJHHHJs54[SIIQQQUTQQQ[444[DDDDDQ!!!!Q!!!QQTQTIILIIII[    [IIIT",
"Q!!!!!!!!!!!!!!!!!!!!!IIID[.  [[LLDSKLLITTQ!!!QTTITIIII[[[       =FJJJJHh65[[IDLILIQTIU[444[ITTQ!!!!!!!!!!!!!!TQQTQQQQ[    [ILTT",
"QQQ!!!!!!!!!!!!!!!!!TDDDI[     [[[TIIQ!!!!!!!!TTQQTTQT[[    [[[[[[<mnGGVr5555[IITQT!UTT[444[QQTTTQQQQ!!Q!!!!!!!TIIIIIL[    [IIII",
"ITIIIQQ!!!!!!!!!!TTTLDIID[       [[[LTQ!!!QQQQIIIIITT[     [[Q!QT[[[5958554455[IQ!!!QQT[445[ITQQQQQTTTIQ!!!!!!!QTTTTTT[[   [TTIT",
"IDIIIT!!!!!!!!!!!!TIDTTI![  .   ...[[SLIIIIIIQTT[[[[[    [[TQQQITLI[[555345453[TITQ!QTT[44,[[DDLILIILIIT!!!!!!!!!Q!!TTQ[   [[TLL",
"[[TTIQTQQQQQQQTQTTT[[[[[[[Ooo... .#24[[IIDIL[[[[[       [[LLDSSSSKKIT[[5554445[[[[ILTQ![1#X.[[[[UILLLLLLDLIIT!!!!!!QQQ![[   [[[[",
"2[[[TDDDITTDDDDDI[[-*$*,141*$Oo.X:44444[LLL[         [[[[DDDDDKLIKIT!Q[[[44445554[[QTT[[OXX.. .[[[[[[[IIILLLDKLLLITQQTTQ[       ",
"555[IIIIDIDILI[[[433,:<55452$oOo=545444[[I[<        [[TDDSDKITTQTTTTTTTIT[[54444444[[[[*@oo.. .       [[[[TTQTTTLIITIILU[   .ooO",
"055[[[IIII[[[[55453,-[[[[[[[[[OO34444444[[[4%      [[QQQQTTLTITTTTQQ!TTQQT[[[444444442&@#;-%o.           [[IIIIKDLDKKKL[[  #dAGG",
"b5554[[[[[[5555[[[[[[[TITIDDDL[[[[[44444[[442    [[QQTQ!!QQ!QQTILIIITLILILITI[[[444442#O+9g1@..            [[[IIIIIIIIL[  .lGGGH",
"Gh55455544,:*[[[DDDILLLIDIIDLLDLIT[[[44444449@   [QIULITTQ!!!!!!TTTTIIIILLIIIII[[[454,+Xo#ng%                [[[QQ!!!Q[[  %GGHHH",
"GSa4,:&o.[[[[[LDDDTITTTTTQT!Q!QTTTTI[[44446uJm@ [[IIIDIT!!!!!!!!!!!!!!!!!TTIIITTT[[[[[ o o==#   [[[[[[[[[[[[[[!![[[[[[[   $GGHHH",
"SHA%  [[[[IITTTITQQQQQT!!!!!!!!!TILLI[[[45mJPJu [IIKTITIT!!!!!!!!!!!!!!!!!ITTTTTTILTT[[[ ...  [[[!!!QQ!!!!!!![[[[         oGHKHH",
"GGSo [[IIIDTQITT!!Q!!!!!!!!!!!!!TTITILL[6dJJJYF@[LLIITT!!!!!!!!!!!!!!!!!!!TIIIIKLPIITUU[[     [!!!!!!!!!!!!!!!!!![[   [[[[@AHHGH",
"GSAO[[IIIIIQQ!!!!!!!!!!!!!!!!!!!!TTKKKL[5JJYJPJ;[TTQQ!!!!!!!!!!!!!!!!!!!!!!QQQITTTIILLLL[    [!!!!!!!!!!!!!!!!!!!QQ[[[[QQ[[FHHHK"
};
